<?xml version="1.0" encoding="utf-8"?>
<!-- Generator: Adobe Illustrator 24.3.0, SVG Export Plug-In . SVG Version: 6.00 Build 0)  -->
<svg version="1.1" id="Layer_1" xmlns="http://www.w3.org/2000/svg" xmlns:xlink="http://www.w3.org/1999/xlink" x="0px" y="0px"
	 viewBox="0 0 24 24" style="enable-background:new 0 0 24 24;" xml:space="preserve">
<style type="text/css">
	.st0{fill:none;}
	.st1{fill:#3855A2;}
</style>
<path class="st0" d="M0,0h24v24H0V0z"/>
<path class="st1" d="M12,16c-3.3,0-6,2.7-6,6H4c0-4.3,3.4-7.9,7.8-8L12,16z M12,1c3.3,0,6,2.7,6,6c0,3.2-2.6,5.9-5.8,6L12,13
	c-3.3,0-6-2.7-6-6c0-3.2,2.6-5.9,5.8-6L12,1z M12,3C9.8,3,8,4.8,8,7s1.8,4,4,4s4-1.8,4-4S14.2,3,12,3z M20.8,19.5h-8.3V18h8.3V19.5z
	"/>
</svg>
